<?xml version="1.0" encoding="UTF-8"?>
<!-- Generator: Adobe Illustrator 16.0.0, SVG Export Plug-In . SVG Version: 6.00 Build 0)  -->
<!DOCTYPE svg PUBLIC "-//W3C//DTD SVG 1.1//EN" "http://www.w3.org/Graphics/SVG/1.1/DTD/svg11.dtd">
<svg version="1.1" id="Capa_1" xmlns="http://www.w3.org/2000/svg" xmlns:xlink="http://www.w3.org/1999/xlink" x="0px" y="0px" width="247px" height="148.5px" viewBox="0 0 247 148.5" enable-background="new 0 0 247 148.5" xml:space="preserve">
<g>
	<path fill="#FFFFFF" d="M24.054,137.753v7.65H12.709c-4.994,0-6.817-2.486-6.817-7.349c0-4.841,1.823-7.306,6.817-7.306h11.178   v2.292H12.709c-3.65,0-4.469,1.713-4.469,5.014c0,3.34,0.818,5.031,4.469,5.031h9.036v-5.333H24.054z"/>
	<path fill="#FFFFFF" d="M72.953,138.138c2.182,0,2.892-1.457,2.892-2.655c0-1.197-0.689-2.634-2.892-2.634H62.718v5.289H72.953z    M60.41,130.749h12.374c3.503,0,5.43,1.758,5.43,4.479c0,2.098-1.149,3.427-3.079,3.939c1.864,0.56,2.724,1.819,2.724,3.428v2.809   H75.47v-2.851c0-1.181-0.734-2.313-2.769-2.313h-9.983v5.163H60.41V130.749z"/>
	<path fill="#FFFFFF" d="M131.183,138.075c0-4.563-2.622-5.293-7.592-5.293c-4.973,0-7.593,0.73-7.593,5.293   c0,4.584,2.62,5.291,7.593,5.291C128.561,143.366,131.183,142.659,131.183,138.075 M133.555,138.075c0,5.848-3.399,7.54-9.964,7.54   c-6.565,0-9.963-1.692-9.963-7.54c0-5.827,3.397-7.522,9.963-7.522C130.155,130.553,133.555,132.248,133.555,138.075"/>
	<path fill="#FFFFFF" d="M169.408,130.749h2.304v7.646c0,3.856,1.406,4.906,6.46,4.906c5.076,0,6.461-1.05,6.461-4.906v-7.646h2.33   v7.646c0,5.251-2.371,7.22-8.791,7.22c-6.332,0-8.764-1.931-8.764-7.22V130.749z"/>
	<path fill="#FFFFFF" d="M235.941,138.224c2.118,0,2.938-1.455,2.938-2.701c0-1.217-0.84-2.674-2.938-2.674h-10.087v5.375H235.941z    M235.838,130.749c3.669,0,5.432,2.163,5.432,4.773c0,2.615-1.763,4.805-5.432,4.805h-9.983v5.076h-2.31v-14.654H235.838z"/>
	<path fill="#FFFFFF" d="M8.881,96.829v25.422H5.73v-28.98h3.068c1.203,0,1.742,0.636,2.283,1.271l15.14,17.923l15.101-17.923   c0.536-0.635,1.077-1.271,2.282-1.271h3.068v28.98h-3.151V96.829l-16.055,18.939h-2.53L8.881,96.829z"/>
	<path fill="#FFFFFF" d="M74.292,99.622c-1.08-2.286-2.449-3.768-4.939-3.768c-2.527,0-3.896,1.481-4.978,3.768l-5.308,11.103H79.6   L74.292,99.622z M88.646,122.251h-3.486l-4.104-8.6H57.616l-4.106,8.6h-3.445l11.158-23.346c1.869-3.94,4.152-6.019,8.13-6.019   c3.984,0,6.184,2.078,8.092,6.019L88.646,122.251z"/>
	<path fill="#FFFFFF" d="M95.191,122.251h-3.193V93.269h2.737c6.803,0,8.712,2.501,16.839,13.601   c7.677,10.509,8.756,12.077,13.152,12.077h0.454V93.269h3.195v28.982h-2.74c-6.51,0-8.418-2.373-16.671-13.391   c-8.132-10.844-9.045-12.286-13.318-12.286h-0.455V122.251z"/>
	<polygon fill="#FFFFFF" points="146.208,122.251 146.208,96.236 131.025,96.236 131.025,93.269 164.583,93.269 164.583,96.236    149.401,96.236 149.401,122.251  "/>
	<path fill="#FFFFFF" d="M200.128,107.76c0-9.998-5.808-11.736-16.179-11.736c-10.369,0-16.219,1.738-16.219,11.736   c0,10.001,5.85,11.779,16.219,11.779C194.32,119.539,200.128,117.761,200.128,107.76 M203.404,107.76   c0,11.866-7.009,14.87-19.455,14.87c-12.447,0-19.497-3.004-19.497-14.87c0-11.865,7.05-14.873,19.497-14.873   C196.396,92.887,203.404,95.895,203.404,107.76"/>
	<path fill="#FFFFFF" d="M230.98,119.284c4.731,0,6.929-1.694,6.929-4.744c0-3.051-2.239-4.578-7.547-5.042l-14.065-1.189   c-6.307-0.507-9.624-2.835-9.624-7.625c0-5.21,4.024-7.415,9.46-7.415h23.062v2.968h-23.312c-3.774,0-5.933,1.358-5.933,4.362   c0,2.881,1.952,4.238,7.178,4.705l13.688,1.185c6.72,0.593,10.37,2.756,10.37,7.924c0,4.83-3.195,7.835-10.37,7.835h-24.724v-2.963   H230.98z"/>
	<path fill="#FFFFFF" d="M89.794,36.987c3.974-14.108,7.727-27.434,15.67-30.822c2.712-1.156,5.777-1.026,9.13,0.335   c-2.103-1.915-5.955-3.623-11.252-3.615c-6.008,0.007-16.867,0.012-30.539,0.019c-6.154-0.13-16.736-0.002-20.732,14.727   c-6.137,22.775-6.601,39.967-26.124,50.224l-0.128,0.197h49.45l0.647-0.363C82.591,62.574,86.252,49.567,89.794,36.987"/>
	<path fill="#FFFFFF" d="M190.289,10.651l-2.034-1.163c-3.757-2.094-6.932-2.542-9.7-1.363c-7.021,2.993-10.81,16.441-14.471,29.449   c-1.092,3.881-2.2,7.798-3.404,11.533c1.688,5.066,5.523,15.093,10.551,18.943h49.865   C202.868,65.949,199.768,26.549,190.289,10.651"/>
	<path fill="#FFFFFF" d="M162.085,36.987c3.972-14.108,7.725-27.434,15.668-30.822c2.849-1.215,6.085-1.021,9.633,0.539   c-2.047-1.995-5.976-3.826-11.464-3.819c-6.007,0.007-16.867,0.012-30.539,0.019c-6.153-0.13-16.734-0.002-20.732,14.727   c-0.529,1.968-1.017,3.892-1.479,5.78c-0.007-0.013-0.01-0.025-0.014-0.039c-0.521,2.11-1.013,4.172-1.49,6.195   c-3.907,16.549-7.034,29.758-21.912,38.485h47.804l0.646-0.363C154.88,62.574,158.543,49.567,162.085,36.987"/>
	<path fill="#FFFFFF" d="M119.646,29.068c0.703-2.981,1.434-6.052,2.26-9.243c-1.335-3.625-2.757-6.855-4.354-9.43l-1.589-0.906   c-3.754-2.094-6.929-2.542-9.699-1.363c-7.021,2.993-10.807,16.443-14.47,29.448c-1.128,4.008-2.269,8.056-3.521,11.903   c1.507,4.76,4.658,13.295,8.972,17.56C112.622,58.783,115.578,46.298,119.646,29.068"/>
</g>
</svg>